<svg xmlns="http://www.w3.org/2000/svg" xmlns:xlink="http://www.w3.org/1999/xlink" x="0" y="0" width="661.066650390625" height="301.066650390625" style="
        width:661.066650390625px;
        height:301.066650390625px;
        background: #FFF;
        fill: none;
">
        <svg xmlns="http://www.w3.org/2000/svg"><g><defs><pattern id=".9198963477213177" width="10" height="10" patternUnits="userSpaceOnUse"><path d="M 10 0 L 0 0 0 10" fill="none" stroke="lightgray" stroke-width="0.5"/></pattern></defs><rect width="100%" height="100%" fill="url(#.9198963477213177)" stroke="lightgray" stroke-width="0.5"/></g></svg>
        
        <svg xmlns="http://www.w3.org/2000/svg" class="role-diagram-draw-area"><g class="shapes-region" style="stroke: black; fill: none;"><g class="arrow-line"><path class="connection real" stroke-dasharray="" d="  M126.47,253.4 L126.47,13.4" style="stroke: rgb(0, 0, 0); stroke-width: 1px; fill: none; fill-opacity: 1;"/><g stroke="#000" transform="matrix(3.061616997868383e-16,1,-1,3.061616997868383e-16,126.46667480468751,11.399993896484375)" style="stroke: rgb(0, 0, 0); stroke-width: 1px;"><path d=" M10.93,-3.29 Q4.96,-0.45 0,0 Q4.96,0.45 10.93,3.29"/></g></g><g class="arrow-line"><path class="connection real" stroke-dasharray="" d="  M126.47,253.4 L565.47,253.4" style="stroke: rgb(0, 0, 0); stroke-width: 1px; fill: none; fill-opacity: 1;"/><g stroke="#000" transform="matrix(-1,1.2246467991473532e-16,-1.2246467991473532e-16,-1,567.4666748046875,253.39999389648438)" style="stroke: rgb(0, 0, 0); stroke-width: 1px;"><path d=" M10.93,-3.29 Q4.96,-0.45 0,0 Q4.96,0.45 10.93,3.29"/></g></g><g class="composite-shape"><path class="real" d=" M150,174.08 C150,170.72 152.72,168 156.08,168 L194.39,168 C197.74,168 200.47,170.72 200.47,174.08 L200.47,192.32 C200.47,195.68 197.74,198.4 194.39,198.4 L156.08,198.4 C152.72,198.4 150,195.68 150,192.32 Z" style="stroke-width: 1px; stroke: rgb(0, 0, 0); fill: none; fill-opacity: 1;"/></g><g class="composite-shape"><path class="real" d=" M221,175.08 C221,171.72 223.72,169 227.08,169 L265.39,169 C268.74,169 271.47,171.72 271.47,175.08 L271.47,193.32 C271.47,196.68 268.74,199.4 265.39,199.4 L227.08,199.4 C223.72,199.4 221,196.68 221,193.32 Z" style="stroke-width: 1px; stroke: rgb(0, 0, 0); fill: none; fill-opacity: 1;"/></g><g class="composite-shape"><path class="real" d=" M293,175.08 C293,171.72 295.72,169 299.08,169 L337.39,169 C340.74,169 343.47,171.72 343.47,175.08 L343.47,193.32 C343.47,196.68 340.74,199.4 337.39,199.4 L299.08,199.4 C295.72,199.4 293,196.68 293,193.32 Z" style="stroke-width: 1px; stroke: rgb(0, 0, 0); fill: none; fill-opacity: 1;"/></g><g class="composite-shape"><path class="real" d=" M150,123.08 C150,119.72 152.72,117 156.08,117 L194.39,117 C197.74,117 200.47,119.72 200.47,123.08 L200.47,141.32 C200.47,144.68 197.74,147.4 194.39,147.4 L156.08,147.4 C152.72,147.4 150,144.68 150,141.32 Z" style="stroke-width: 1px; stroke: rgb(0, 0, 0); fill: none; fill-opacity: 1;"/></g><g class="composite-shape"><path class="real" d=" M149,75.08 C149,71.72 151.72,69 155.08,69 L193.39,69 C196.74,69 199.47,71.72 199.47,75.08 L199.47,93.32 C199.47,96.68 196.74,99.4 193.39,99.4 L155.08,99.4 C151.72,99.4 149,96.68 149,93.32 Z" style="stroke-width: 1px; stroke: rgb(0, 0, 0); fill: none; fill-opacity: 1;"/></g><g class="arrow-line"><path class="connection real" stroke-dasharray="" d="  M126.47,184.4 L147.47,184.4" style="stroke: rgb(0, 0, 0); stroke-width: 1px; fill: none; fill-opacity: 1;"/><g stroke="#000" transform="matrix(-1,1.2246467991473532e-16,-1.2246467991473532e-16,-1,149.46667480468747,184.3999938964844)" style="stroke: rgb(0, 0, 0); stroke-width: 1px;"><path d=" M10.93,-3.29 Q4.96,-0.45 0,0 Q4.96,0.45 10.93,3.29"/></g></g><g class="arrow-line"><path class="connection real" stroke-dasharray="" d="  M200.47,184.4 L219.47,184.4" style="stroke: rgb(0, 0, 0); stroke-width: 1px; fill: none; fill-opacity: 1;"/><g stroke="#000" transform="matrix(-1,1.2246467991473532e-16,-1.2246467991473532e-16,-1,221.46667480468747,184.3999938964844)" style="stroke: rgb(0, 0, 0); stroke-width: 1px;"><path d=" M10.93,-3.29 Q4.96,-0.45 0,0 Q4.96,0.45 10.93,3.29"/></g></g><g class="arrow-line"><path class="connection real" stroke-dasharray="" d="  M272.47,183.4 L291.47,183.4" style="stroke: rgb(0, 0, 0); stroke-width: 1px; fill: none; fill-opacity: 1;"/><g stroke="#000" transform="matrix(-1,1.2246467991473532e-16,-1.2246467991473532e-16,-1,293.4666748046875,183.3999938964844)" style="stroke: rgb(0, 0, 0); stroke-width: 1px;"><path d=" M10.93,-3.29 Q4.96,-0.45 0,0 Q4.96,0.45 10.93,3.29"/></g></g><g class="arrow-line"><path class="connection real" stroke-dasharray="" d="  M126.47,132.4 L145.47,132.4" style="stroke: rgb(0, 0, 0); stroke-width: 1px; fill: none; fill-opacity: 1;"/><g stroke="#000" transform="matrix(-1,1.2246467991473532e-16,-1.2246467991473532e-16,-1,147.46667480468747,132.3999938964844)" style="stroke: rgb(0, 0, 0); stroke-width: 1px;"><path d=" M10.93,-3.29 Q4.96,-0.45 0,0 Q4.96,0.45 10.93,3.29"/></g></g><g class="arrow-line"><path class="connection real" stroke-dasharray="" d="  M127.47,84.4 L146.47,84.4" style="stroke: rgb(0, 0, 0); stroke-width: 1px; fill: none; fill-opacity: 1;"/><g stroke="#000" transform="matrix(-1,1.2246467991473532e-16,-1.2246467991473532e-16,-1,148.4666748046875,84.39999389648439)" style="stroke: rgb(0, 0, 0); stroke-width: 1px;"><path d=" M10.93,-3.29 Q4.96,-0.45 0,0 Q4.96,0.45 10.93,3.29"/></g></g><g class="arrow-line"><path class="connection real" stroke-dasharray="" d="  M398.47,109.4 C343.03,126.23 320.91,128.36 325.32,179.83" style="stroke: rgb(0, 0, 0); stroke-width: 1px; fill: none; fill-opacity: 1;"/><g stroke="#000" transform="matrix(-0.09393455354414598,-0.9955783744389298,0.9955783744389298,-0.09393455354414598,325.4666748046875,181.39999389648438)" style="stroke: rgb(0, 0, 0); stroke-width: 1px;"><path d=" M10.93,-3.29 Q4.96,-0.45 0,0 Q4.96,0.45 10.93,3.29"/></g></g><g/></g><g/><g/><g/></svg>
        <svg xmlns="http://www.w3.org/2000/svg" xmlns:xlink="http://www.w3.org/1999/xlink" width="660" height="300" style="width:660px;height:300px;font-family:Asana-Math, Asana;background:#FFF;"><g><g><g><text x="26.5333251953125" y="10.5" style="white-space:pre;stroke:none;fill:rgb(0,0,0);fill-opacity:1;font-size:15px;font-family:Arial, Helvetica, sans-serif;font-weight:400;font-style:normal;dominant-baseline:text-before-edge;text-decoration:rgb(0, 0, 0);">trailing_zeros</text></g></g></g><g><g><g><text x="530.5333251953125" y="265.5" style="white-space:pre;stroke:none;fill:rgb(0,0,0);fill-opacity:1;font-size:15px;font-family:Arial, Helvetica, sans-serif;font-weight:400;font-style:normal;dominant-baseline:text-before-edge;text-decoration:rgb(0, 0, 0);">timestamp</text></g></g></g><g><g><g><text x="379.5333251953125" y="181.5" style="white-space:pre;stroke:none;fill:rgb(0,0,0);fill-opacity:1;font-size:15px;font-family:Arial, Helvetica, sans-serif;font-weight:400;font-style:normal;dominant-baseline:text-before-edge;text-decoration:rgb(0, 0, 0);">VecDeq</text></g></g></g><g><g><g><text x="410.5333251953125" y="94.5" style="white-space:pre;stroke:none;fill:rgb(0,0,0);fill-opacity:1;font-size:15px;font-family:Arial, Helvetica, sans-serif;font-weight:400;font-style:normal;dominant-baseline:text-before-edge;text-decoration:rgb(0, 0, 0);">HashMap&lt;K, V&gt;</text></g></g></g></svg>
</svg>
